# xmcd
#
# Track frame offsets:
#	300
#	16457
#	29965
#	53067
#	68182
#	89867
#	109267
#	127725
#	141127
#	154212
#	170977
#
# Disc length: 2467 seconds
#
# Revision: 2
# Processed by: cddbd v1.5.1PL0 Copyright (c) Steve Scherf et al.
# Submitted via: MusicWizard 7.1.1b
#
DISCID=a6099f0b
DTITLE=Kenny Rogers - The Gambler
DYEAR=1979
DGENRE=Country
TTITLE0=The Gambler
TTITLE1=I Wish That I Could Hurt That Way Again
TTITLE2=King Of Oak Street
TTITLE3=Making Music For Money
TTITLE4=The Hoodooin' Of Miss Fannie Deberry
TTITLE5=She Believes In Me
TTITLE6=Tennessee Bottle
TTITLE7=Sleep Tight, Goodnight Man
TTITLE8=A Little More Like Me (The Crucifixion)
TTITLE9=San Francisco Mabel Joy
TTITLE10=Morgana Jones
EXTD=(c)1979 United Artists Records/ EMI Electrola 038 15 7585 1\nupc5099915758514\nProduced by La
EXTD=rry Butler
EXTT0=
EXTT1=
EXTT2=
EXTT3=
EXTT4=
EXTT5=
EXTT6=
EXTT7=
EXTT8=
EXTT9=
EXTT10=
PLAYORDER=
